<svg xmlns="http://www.w3.org/2000/svg" xml:space="preserve" width="1.70666in" height="1.70666in" style="shape-rendering:geometricPrecision; text-rendering:geometricPrecision; image-rendering:optimizeQuality; fill-rule:evenodd; clip-rule:evenodd" viewBox="0 0 1.70666 1.70666" xmlns:xlink="http://www.w3.org/1999/xlink">
 <defs>
  <style type="text/css">
   
    .fil0 {fill:black}
   
  </style>
 </defs>
 <g id="Layer_x0020_1">
  <metadata id="CorelCorpID_0Corel-Layer"></metadata>
  <path class="fil0" d="M1.486 0.928248l-1.26533 0c-0.0509488,0 -0.0923937,-0.0414449 -0.0923937,-0.0923898 0,-0.0509488 0.0414488,-0.0923937 0.0923937,-0.0923937l1.26533 0c0.0509488,0 0.0923937,0.0414449 0.0923937,0.0923937 3.93701e-006,0.0509449 -0.0414449,0.0923898 -0.0923937,0.0923898z" id="id_101" style="fill: rgb(255, 255, 255);"></path>
  <polygon class="fil0" points="0.22652,1.47821 0.22652,0.971579 1.48015,0.971579 1.48015,1.47821 " id="id_102" style="fill: rgb(255, 255, 255);"></polygon>
  <path class="fil0" d="M1.486 1.70633l-1.26533 0c-0.0509488,0 -0.0923937,-0.0414449 -0.0923937,-0.0923937 0,-0.0509488 0.0414488,-0.0923937 0.0923937,-0.0923937l1.26533 0c0.0509488,0 0.0923937,0.0414449 0.0923937,0.0923898 3.93701e-006,0.0509528 -0.0414449,0.0923976 -0.0923937,0.0923976z" id="id_103" style="fill: rgb(255, 255, 255);"></path>
  <path class="fil0" d="M0.397831 0.700134l0 -0.277984c0,-0.0119646 0.00969685,-0.0216575 0.0216614,-0.0216575l0.122335 0c0.0119606,0 0.0216575,0.00969291 0.0216575,0.0216575l0 0.277984 -0.165654 0z" id="id_104" style="fill: rgb(255, 255, 255);"></path>
  <path class="fil0" d="M0.692555 0.570508l-0.0857402 0 0 -0.148358c0,-0.035878 -0.0291102,-0.0649882 -0.0649882,-0.0649882l-0.122335 0c-0.035878,0 -0.0649921,0.0291063 -0.0649921,0.0649882l0 0.148358 -0.0857402 0c-0.0227835,0 -0.0413189,-0.0185354 -0.0413189,-0.0413228l0 -0.353882c0,-0.0227835 0.0185354,-0.0413228 0.0413189,-0.0413228l0.423795 0c0.0227835,0 0.0413189,0.0185354 0.0413189,0.0413228l0 0.353882c-3.93701e-006,0.0227874 -0.0185394,0.0413228 -0.0413189,0.0413228z" id="id_105" style="fill: rgb(255, 255, 255);"></path>
  <path class="fil0" d="M1.1626 0.429713c-0.0126693,0 -0.0252165,-0.00397244 -0.0442717,-0.0120984 -0.0749961,-0.0319961 -0.101626,-0.100228 -0.11076,-0.151827 -0.00208661,-0.0117795 0.00577165,-0.0230157 0.0175512,-0.0251024 0.0305039,-0.199012 0.21452,-0.244957 0.255614,-0.0133898 0.0039252,-0.00744882 0.0120197,-0.0122323 0.0209567,-0.0114882 0.0119252,0.000992126 0.0207835,0.0114567 0.0197953,0.023378 -0.00430709,0.0519567 -0.0254528,0.14452 -0.118657,0.180642 -0.0169094,0.00654331 -0.0286181,0.00988583 -0.0402283,0.00988583z" id="id_106" style="fill: rgb(255, 255, 255);"></path>
  <path class="fil0" d="M1.02889 0.283689c-0.00939764,0 -0.0178858,-0.00611811 -0.0207008,-0.0153307 -0.00310236,-0.0101535 -0.00548819,-0.0206535 -0.00779921,-0.0308071 -0.00830315,-0.0364764 -0.0145394,-0.0592244 -0.0372402,-0.0669488 -0.0066811,-0.00227165 -0.0118307,-0.00765748 -0.013811,-0.0144331 -0.00198031,-0.00677165 -0.000531496,-0.0140827 0.00387008,-0.0195945 0.00445276,-0.00556299 0.110142,-0.136244 0.219244,-0.136244 0.0367795,0 0.0694488,0.0144213 0.0971417,0.0428661 0.0170394,0.0101929 0.0655118,0.0522559 0.0518701,0.196236 -0.000901575,0.00953543 -0.00796457,0.0173465 -0.0173622,0.0192008 -0.0093937,0.00185039 -0.0189016,-0.00267717 -0.0233661,-0.0111535 -0.0172638,-0.0327756 -0.0390236,-0.0650551 -0.0512362,-0.0767835 -0.0164685,0.0110591 -0.0481693,0.0288228 -0.0819016,0.0288228 -0.0108386,0 -0.021185,-0.00180315 -0.0308228,-0.00537402 -0.0245079,0.000102362 -0.0652323,0.00920472 -0.0662205,0.0682441 -0.000173228,0.0106535 -0.00808268,0.0195984 -0.0186339,0.0210827 -0.00101969,0.000145669 -0.00203543,0.000216535 -0.0030315,0.000216535z" id="id_107" style="fill: rgb(255, 255, 255);"></path>
  <path class="fil0" d="M0.846374 0.700134l0 -0.101933c0,-0.103984 0.0845906,-0.188579 0.188571,-0.188579l0.193559 0 0.00193307 0 0.0602165 0c0.103984,0 0.188583,0.0845945 0.188583,0.188579l0 0.101933 -0.106551 0 0 -0.0468898c0,-0.0119606 -0.00969291,-0.0216575 -0.0216575,-0.0216575 -0.0119606,0 -0.0216575,0.00969685 -0.0216575,0.0216575l0 0.0468898 -0.333138 0 0 -0.0468898c0,-0.0119606 -0.00969685,-0.0216575 -0.0216614,-0.0216575 -0.0119606,0 -0.0216575,0.00969685 -0.0216575,0.0216575l0 0.0468898 -0.106539 0z" id="id_108" style="fill: rgb(255, 255, 255);"></path>
 </g>
</svg>